<svg width="128" height="128" viewBox="0 0 128 128" fill="none" xmlns="http://www.w3.org/2000/svg">
<path d="M36.0995 0L91.9005 0C104.453 0 109.005 1.30698 113.594 3.76123C118.183 6.21547 121.785 9.81698 124.239 14.406C126.693 18.9951 128 23.5469 128 36.0995V91.9005C128 104.453 126.693 109.005 124.239 113.594C121.785 118.183 118.183 121.785 113.594 124.239C109.005 126.693 104.453 128 91.9005 128H36.0995C23.5469 128 18.9951 126.693 14.406 124.239C9.81698 121.785 6.21547 118.183 3.76123 113.594C1.30698 109.005 0 104.453 0 91.9005L0 36.0995C0 23.5469 1.30698 18.9951 3.76123 14.406C6.21547 9.81698 9.81698 6.21547 14.406 3.76123C18.9951 1.30698 23.5469 0 36.0995 0Z" fill="white"/>
<path fill-rule="evenodd" clip-rule="evenodd" d="M6.3999 63.9999C6.3999 32.1883 32.1883 6.3999 63.9999 6.3999C95.8115 6.3999 121.6 32.1883 121.6 63.9999C121.6 95.8115 95.8115 121.6 63.9999 121.6C32.1883 121.6 6.3999 95.8115 6.3999 63.9999ZM96.6015 63.9999C96.6015 45.9945 82.0053 31.3983 63.9999 31.3983C45.9945 31.3983 31.3983 45.9945 31.3983 63.9999C31.3983 82.0052 45.9945 96.6015 63.9999 96.6015C82.0053 96.6015 96.6015 82.0052 96.6015 63.9999Z" fill="url(#paint0_linear_24085_156713)"/>
<path fill-rule="evenodd" clip-rule="evenodd" d="M43.5208 60.416C43.5203 60.3734 43.52 60.3307 43.52 60.288C43.52 54.2791 48.3912 49.408 54.4 49.408C58.556 49.408 62.1678 51.7382 64 55.1634C65.8322 51.7382 69.444 49.408 73.6 49.408C79.6089 49.408 84.48 54.2791 84.48 60.288C84.48 60.3307 84.4798 60.3734 84.4793 60.416H84.48C84.48 71.9388 69.12 81.408 64 81.408C58.88 81.408 43.52 71.9388 43.52 60.416H43.5208Z" fill="url(#paint1_linear_24085_156713)"/>
<path d="M47.7396 102.431C48.5562 99.247 51.4579 98.0789 54.9388 98.9602C57.0596 99.4971 59.0388 100.681 60.5081 102.419C60.8296 102.793 60.9774 103.367 60.8362 103.917C60.6018 104.833 59.6812 105.357 58.7591 105.123C58.2983 105.006 58.0166 104.764 57.8275 104.546C56.8347 103.343 55.6382 102.455 54.0706 102.058C52.6184 101.69 51.5954 102.041 51.3548 102.981L51.3431 103.027C51.1143 103.92 51.5503 104.518 54.0706 105.888C57.1098 107.535 58.9786 108.96 58.1624 112.145L58.1507 112.191C57.405 115.1 54.5604 116.429 51.264 115.594C49.3046 115.098 47.7277 114.162 46.5101 112.878C46.177 112.55 45.9079 111.97 46.0843 111.282C46.3188 110.366 47.2393 109.843 48.1614 110.076C48.5073 110.164 48.7599 110.325 48.9954 110.556C49.9951 111.54 51.0024 112.21 52.1087 112.49C53.4687 112.834 54.3413 112.397 54.5413 111.618L54.553 111.572C54.8232 110.518 54.2201 110 51.6126 108.583C48.5566 106.907 47.0116 105.271 47.7278 102.477L47.7396 102.431ZM73.0071 99.1887C74.0018 98.9495 74.9791 99.5422 75.22 100.53L78.347 113.359C78.5875 114.347 77.9908 115.318 76.9954 115.557C76.0008 115.796 75.0233 115.203 74.7825 114.215L71.6566 101.388C71.4158 100.399 72.0117 99.4283 73.0071 99.1887ZM95.6702 83.3078C96.2461 82.6446 97.1315 82.4957 98.054 82.8469L111.045 87.8312C111.254 87.9164 111.5 88.0327 111.662 88.1721C112.439 88.8366 112.456 89.9759 111.787 90.7473C111.227 91.3925 110.36 91.5582 109.626 91.2434L99.7093 87.1066L105.209 96.1848C105.673 96.9565 105.705 97.8274 105.098 98.5266L104.91 98.7414C104.303 99.441 103.449 99.5547 102.594 99.1984L92.7347 95.1418L98.3226 104.265C98.7087 104.908 98.756 105.76 98.1644 106.442C97.5107 107.195 96.4026 107.31 95.6439 106.661C95.4812 106.522 95.3104 106.282 95.1946 106.09L88.3079 94.0754C87.8212 93.2215 87.839 92.3296 88.4153 91.6662L88.6644 91.3791C89.2403 90.716 90.092 90.5694 91.0325 90.9367L100.428 94.6574L95.3294 85.9855C94.8249 85.1165 94.8453 84.2585 95.4212 83.5949L95.6702 83.3078ZM30.5276 83.3391C31.307 82.6753 32.4525 82.7616 33.1214 83.5353C33.7902 84.3089 33.7026 85.4467 32.9232 86.1105L29.1155 89.3527L33.5335 94.4631L37.3411 91.2209C38.1205 90.5567 39.2661 90.6436 39.9349 91.4172C40.6037 92.1912 40.516 93.3282 39.7366 93.9924L29.6194 102.607C28.84 103.27 27.6945 103.184 27.0257 102.409C26.3573 101.636 26.4445 100.5 27.2239 99.8361L30.9593 96.6555L26.5413 91.5451L22.806 94.7248C22.0262 95.3886 20.8815 95.3019 20.2122 94.5285C19.5438 93.755 19.6313 92.6182 20.4105 91.9543L30.5276 83.3391ZM25.4876 60.4348C26.3876 60.3565 27.1622 61.0296 27.2405 61.9309L28.0501 71.2502C28.1386 72.2696 27.4034 73.1461 26.3851 73.2346L13.4505 74.3605C12.4319 74.4492 11.5567 73.7131 11.4681 72.6936L10.6683 63.4924C10.5903 62.5915 11.2611 61.7933 12.1614 61.715C13.0615 61.6368 13.8361 62.3098 13.9144 63.2111L14.5569 70.6086L17.9212 70.3156L17.3704 63.9846C17.2922 63.0836 17.9635 62.2849 18.8636 62.2062C19.7635 62.1282 20.5373 62.8014 20.6155 63.7023L21.1663 70.0334L24.6487 69.7307L23.9954 62.2141C23.9168 61.3127 24.5875 60.5131 25.4876 60.4348ZM116.025 55.4758C117 55.4601 117.797 56.2547 117.814 57.2766C117.827 58.1074 117.384 58.6368 116.726 59.0988L110.966 63.2316L116.907 67.2463C117.579 67.6868 118.016 68.2261 118.029 68.9855C118.047 70.1024 117.272 70.781 116.274 70.7971C115.775 70.805 115.319 70.5746 114.983 70.343L107.643 65.092L102.84 65.1701C101.818 65.1866 100.996 64.3914 100.98 63.3703C100.963 62.349 101.758 61.5288 102.781 61.5119L107.512 61.4348L114.725 55.9484C115.077 55.681 115.502 55.4842 116.025 55.4758ZM20.93 34.6223C21.3337 34.382 21.9676 34.2661 22.596 34.6057C23.4341 35.059 23.7188 36.076 23.262 36.9074C23.0908 37.2194 22.8698 37.4236 22.5862 37.5939C21.3756 38.3142 20.4711 39.12 19.9232 40.1184C19.25 41.3449 19.4619 42.2946 20.1741 42.6799L20.2161 42.7033C21.1798 43.2243 21.8368 42.77 23.8675 40.6057C26.2633 38.0724 28.2451 36.9862 30.8011 38.3684L30.8431 38.3918C33.7547 39.9665 34.1789 43.0539 32.4554 46.1936C31.4052 48.1064 29.7569 49.7229 27.6937 50.7102C27.2481 50.9278 26.6507 50.9273 26.1478 50.6555C25.3096 50.2025 25.025 49.1861 25.4818 48.3547C25.7098 47.9391 26.0163 47.7271 26.2767 47.5988C27.6989 46.9385 28.8638 46.0039 29.64 44.59C30.3592 43.2801 30.2694 42.2064 29.4105 41.7424L29.3685 41.7199C28.5512 41.2781 27.8589 41.5509 25.8948 43.6437C23.5314 46.1674 21.6751 47.6175 18.763 46.0432L18.721 46.0197C16.0603 44.5809 15.4651 41.5085 17.097 38.5353C18.067 36.7681 19.3728 35.4792 20.93 34.6223ZM99.6566 25.3498C100.461 24.7155 101.602 24.8442 102.242 25.6418L102.494 25.9582C102.985 26.5703 103.01 27.2474 102.788 27.8469L99.889 35.7717L108.357 34.7541C109.081 34.6674 109.651 34.8828 110.113 35.4582L110.366 35.7736C111.005 36.5717 110.875 37.7043 110.071 38.3391L99.6732 46.548C98.869 47.1822 97.728 47.0533 97.0882 46.2561C96.4631 45.4767 96.6113 44.3285 97.3968 43.7082L103.923 38.5559L98.0257 39.1223C97.3386 39.1796 96.7607 39.0292 96.3441 38.51C95.9275 37.9904 95.9098 37.398 96.1204 36.7473L97.9759 31.2521L91.4681 36.3898C90.6827 37.0097 89.5597 36.8662 88.9349 36.0871C88.3098 35.3077 88.4356 34.208 89.221 33.5881L99.6566 25.3498ZM40.8831 15.7756C45.5205 13.5321 50.5316 15.356 52.6126 19.6008L52.6331 19.6428C54.7138 23.8872 53.0469 28.995 48.4095 31.2385C43.7726 33.4823 38.7617 31.6584 36.681 27.4143L36.6595 27.3713C34.5789 23.1269 36.2458 18.0191 40.8831 15.7756ZM68.8021 12.0871C69.0265 11.0949 69.9977 10.4863 71.0013 10.7082C72.0042 10.9303 72.6203 11.8904 72.3958 12.882L71.3206 17.634L77.9476 19.0998L79.0228 14.3469C79.2474 13.3554 80.218 12.7471 81.221 12.9689C82.2246 13.1909 82.841 14.1506 82.6165 15.1428L79.7034 28.0148C79.479 29.0069 78.5086 29.6163 77.5052 29.3947C76.5017 29.1728 75.8854 28.213 76.1097 27.2209L77.2064 22.3762L70.5784 20.9103L69.4827 25.7551C69.2581 26.7471 68.287 27.3559 67.2835 27.134C66.2806 26.9119 65.6646 25.9518 65.889 24.9602L68.8021 12.0871ZM49.2347 21.2648C47.9798 18.7132 45.0441 17.4988 42.3821 18.7824C39.7201 20.0669 38.8978 23.0405 40.1526 25.592L40.1741 25.635C41.4292 28.1862 44.3635 29.4012 47.0257 28.1174C49.6881 26.8334 50.5097 23.8584 49.2552 21.3068L49.2347 21.2648Z" fill="#FEFEFE"/>
<defs>
<linearGradient id="paint0_linear_24085_156713" x1="-51.2001" y1="63.9999" x2="63.9999" y2="179.2" gradientUnits="userSpaceOnUse">
<stop stop-color="#0333FF"/>
<stop offset="1" stop-color="#001B8D"/>
</linearGradient>
<linearGradient id="paint1_linear_24085_156713" x1="23.04" y1="65.408" x2="54.0891" y2="105.151" gradientUnits="userSpaceOnUse">
<stop stop-color="#FF705F"/>
<stop offset="1" stop-color="#DA271C"/>
</linearGradient>
</defs>
</svg>
