<svg width="397" height="72" viewBox="0 0 397 72" fill="none" xmlns="http://www.w3.org/2000/svg">
<path d="M20.7419 1L51.2581 1C58.1228 1 60.6121 1.71476 63.1217 3.05692C65.6313 4.39909 67.6009 6.36866 68.9431 8.87829C70.2852 11.3879 71 13.8772 71 20.7419V51.2581C71 58.1228 70.2852 60.6121 68.9431 63.1217C67.6009 65.6313 65.6313 67.6009 63.1217 68.9431C60.6121 70.2852 58.1228 71 51.2581 71H20.7419C13.8772 71 11.3879 70.2852 8.87829 68.9431C6.36866 67.6009 4.39909 65.6313 3.05692 63.1217C1.71476 60.6121 1 58.1228 1 51.2581L1 20.7419C1 13.8772 1.71476 11.3879 3.05692 8.87829C4.39909 6.36866 6.36866 4.39909 8.87829 3.05692C11.3879 1.71476 13.8772 1 20.7419 1Z" fill="white" stroke="black" stroke-opacity="0.1" stroke-width="2"/>
<path fill-rule="evenodd" clip-rule="evenodd" d="M4.5 36C4.5 18.603 18.603 4.5 36 4.5C53.397 4.5 67.5 18.603 67.5 36C67.5 53.397 53.397 67.5 36 67.5C18.603 67.5 4.5 53.397 4.5 36ZM53.829 36C53.829 26.1533 45.8467 18.171 36 18.171C26.1533 18.171 18.171 26.1533 18.171 36C18.171 45.8467 26.1533 53.829 36 53.829C45.8467 53.829 53.829 45.8467 53.829 36Z" fill="url(#paint0_linear_10214_52797)"/>
<path fill-rule="evenodd" clip-rule="evenodd" d="M24.8004 34.04C24.8001 34.0167 24.8 33.9934 24.8 33.97C24.8 30.6839 27.4639 28.02 30.75 28.02C33.0228 28.02 34.998 29.2944 36 31.1675C37.002 29.2944 38.9772 28.02 41.25 28.02C44.5361 28.02 47.2 30.6839 47.2 33.97C47.2 33.9934 47.1999 34.0167 47.1996 34.04H47.2C47.2 40.3416 38.8 45.52 36 45.52C33.2 45.52 24.8 40.3416 24.8 34.04H24.8004Z" fill="url(#paint1_linear_10214_52797)"/>
<path fill-rule="evenodd" clip-rule="evenodd" d="M27.1074 57.0164C27.5541 55.2754 29.1414 54.637 31.0449 55.1189C32.2046 55.4126 33.2874 56.0601 34.0908 57.0105C34.2665 57.2151 34.3467 57.5291 34.2695 57.8299C34.1412 58.3307 33.638 58.6167 33.1338 58.4891C32.8818 58.425 32.7274 58.2931 32.624 58.1736C32.0812 57.516 31.4274 57.0304 30.5703 56.8133C29.7761 56.6123 29.2166 56.8036 29.085 57.3172L29.0781 57.3426C28.953 57.8312 29.1919 58.1579 30.5703 58.907C32.2324 59.808 33.254 60.5875 32.8076 62.3289L32.8008 62.3543C32.3929 63.9451 30.8377 64.6719 29.0352 64.2156C27.9638 63.9443 27.1014 63.4323 26.4355 62.7303C26.2534 62.5507 26.1056 62.2332 26.2021 61.8572C26.3304 61.3562 26.8337 61.0705 27.3379 61.198C27.5272 61.246 27.6661 61.3336 27.7949 61.4598C28.3416 61.9982 28.892 62.3651 29.4971 62.5184C30.2408 62.7063 30.7178 62.4666 30.8271 62.0408L30.834 62.0164C30.9817 61.44 30.6515 61.1562 29.2256 60.3816C27.5543 59.4649 26.7098 58.5703 27.1016 57.0418L27.1074 57.0164ZM40.9258 55.2439C41.4696 55.1132 42.0039 55.437 42.1357 55.9773L43.8457 62.993C43.9772 63.5334 43.6516 64.0642 43.1074 64.1951C42.5634 64.3259 42.0282 64.0013 41.8965 63.4607L40.1875 56.4461C40.056 55.9055 40.3815 55.375 40.9258 55.2439ZM53.3203 46.5594C53.6353 46.1966 54.1195 46.1143 54.624 46.3064L61.7275 49.033C61.8419 49.0796 61.9764 49.1424 62.0654 49.2186C62.4905 49.5819 62.4997 50.2059 62.1338 50.6277C61.8273 50.9804 61.3535 51.0703 60.9521 50.8982L55.5283 48.6365L58.5361 53.6014C58.7898 54.0234 58.8074 54.4993 58.4756 54.8816L58.373 54.9998C58.041 55.3821 57.574 55.4436 57.1064 55.2488L51.7139 53.0301L54.7705 58.0193C54.9817 58.371 55.007 58.837 54.6836 59.2098C54.3262 59.6217 53.7206 59.6853 53.3057 59.3309C53.2167 59.2547 53.1229 59.1236 53.0596 59.0184L49.293 52.4471C49.027 51.9802 49.0374 51.4924 49.3525 51.1297L49.4883 50.9734C49.8032 50.6108 50.2689 50.5296 50.7832 50.7303L55.9219 52.7664L53.1338 48.0232C52.8577 47.5479 52.8686 47.0786 53.1836 46.7156L53.3203 46.5594ZM17.6953 46.576C18.1215 46.2131 18.7475 46.2603 19.1133 46.6834C19.479 47.1065 19.4311 47.7286 19.0049 48.0916L16.9228 49.8641L19.3389 52.659L21.4209 50.8865C21.8471 50.5233 22.4731 50.571 22.8389 50.9939C23.2046 51.4172 23.1576 52.0389 22.7314 52.4021L17.1982 57.1131C16.7721 57.4759 16.1461 57.4287 15.7803 57.0057C15.4145 56.5826 15.4622 55.9603 15.8887 55.5975L17.9307 53.8582L15.5146 51.0633L13.4727 52.8025C13.0462 53.1655 12.4197 53.1181 12.0537 52.6951C11.6881 52.2721 11.7359 51.65 12.1621 51.2869L17.6953 46.576ZM14.9385 34.0506C15.4307 34.0078 15.8547 34.376 15.8975 34.8689L16.3398 39.9646C16.3883 40.5223 15.9858 41.0023 15.4287 41.0506L8.35546 41.6658C7.79856 41.7141 7.31992 41.3112 7.27148 40.7537L6.83398 35.7225C6.79127 35.2299 7.15811 34.7928 7.65038 34.7498C8.14262 34.707 8.56656 35.0752 8.60937 35.5682L8.96093 39.6141L10.8008 39.4539L10.5 35.991C10.4575 35.4986 10.8235 35.0616 11.3154 35.0184C11.8076 34.9755 12.2315 35.3441 12.2744 35.8367L12.5752 39.2996L14.4795 39.1336L14.1221 35.0232C14.0791 34.5303 14.4463 34.0935 14.9385 34.0506ZM64.4512 31.3377C64.9843 31.3291 65.4207 31.7642 65.4297 32.323C65.437 32.7774 65.195 33.0675 64.835 33.3201L61.6846 35.5799L64.9336 37.7752C65.3014 38.0161 65.5401 38.3111 65.5469 38.7264C65.5567 39.337 65.1339 39.7076 64.5879 39.7166C64.3148 39.721 64.065 39.5953 63.8809 39.4686L59.8672 36.5965L57.2402 36.6395C56.6814 36.6483 56.2328 36.2141 56.2236 35.6561C56.2144 35.0975 56.6489 34.6487 57.208 34.6395L59.7959 34.5975L63.7402 31.5965C63.9327 31.4503 64.1651 31.3423 64.4512 31.3377ZM12.4463 19.9334C12.6671 19.8021 13.0139 19.739 13.3574 19.9246C13.8156 20.1725 13.9712 20.7288 13.7217 21.1834C13.628 21.354 13.5067 21.4662 13.3516 21.5594C12.6897 21.9532 12.1951 22.3934 11.8955 22.9393C11.5273 23.6099 11.643 24.1298 12.0322 24.3406L12.0557 24.3533C12.5827 24.6383 12.9421 24.3895 14.0527 23.2059C15.3629 21.8206 16.447 21.2264 17.8447 21.9822L17.8672 21.9949C19.4596 22.856 19.6915 24.5445 18.749 26.2615C18.1747 27.3077 17.2729 28.1923 16.1445 28.7322C15.9009 28.851 15.5747 28.8505 15.2998 28.702C14.8415 28.4542 14.6858 27.8988 14.9355 27.4441C15.0603 27.2167 15.2276 27.1003 15.3701 27.0301C16.1479 26.669 16.7855 26.1587 17.21 25.3855C17.6033 24.6691 17.5537 24.0817 17.084 23.8279L17.0605 23.8152C16.6138 23.5739 16.2347 23.723 15.1611 24.867C13.8686 26.2472 12.8534 27.0406 11.2607 26.1795L11.2383 26.1668C9.78316 25.38 9.45717 23.7 10.3496 22.074C10.8801 21.1074 11.5946 20.4021 12.4463 19.9334ZM55.499 14.8631C55.9389 14.5159 56.5632 14.5868 56.9131 15.0232L57.0518 15.1951C57.3203 15.5299 57.3331 15.9014 57.2119 16.2293L55.6269 20.5623L60.2578 20.0057C60.6537 19.9583 60.9655 20.0767 61.2178 20.3914L61.3564 20.5633C61.7062 20.9997 61.6349 21.6194 61.1953 21.9666L55.5088 26.4559C55.0689 26.8027 54.4446 26.7319 54.0947 26.2957C53.7532 25.8696 53.8344 25.2423 54.2637 24.9031L57.833 22.0857L54.6074 22.3943C54.2317 22.4256 53.9153 22.3443 53.6875 22.0603C53.4597 21.7762 53.4511 21.4514 53.5664 21.0955L54.5801 18.0906L51.0215 20.9012C50.5919 21.24 49.9773 21.1613 49.6357 20.7352C49.2939 20.3089 49.3634 19.707 49.793 19.368L55.499 14.8631ZM23.3584 9.62675C25.8942 8.40025 28.6344 9.39753 29.7725 11.7186L29.7832 11.742C30.9211 14.0632 30.0097 16.8569 27.4736 18.0838C24.9379 19.3106 22.1974 18.313 21.0596 15.992L21.0488 15.9686C19.911 13.6474 20.8223 10.8537 23.3584 9.62675ZM38.626 7.61015C38.7487 7.06755 39.2803 6.73488 39.8291 6.85625C40.3774 6.97784 40.7145 7.50251 40.5918 8.04472L40.0029 10.6434L43.6269 11.4451L44.2158 8.84648C44.3386 8.3041 44.8694 7.97025 45.418 8.0916C45.9668 8.21296 46.3034 8.73845 46.1807 9.28105L44.5879 16.3211C44.465 16.8634 43.9343 17.1962 43.3857 17.075C42.8371 16.9537 42.4996 16.429 42.6221 15.8865L43.2226 13.2371L39.5976 12.4353L38.998 15.0848C38.8752 15.6272 38.3446 15.96 37.7959 15.8387C37.2474 15.7173 36.9106 15.1925 37.0332 14.6502L38.626 7.61015ZM27.9248 12.6287C27.2384 11.2336 25.6333 10.5694 24.1777 11.2713C22.7218 11.9737 22.2727 13.6005 22.959 14.9959L22.9697 15.0184C23.6559 16.4136 25.2609 17.0786 26.7168 16.3768C28.1728 15.6746 28.6226 14.0476 27.9365 12.6521L27.9248 12.6287Z" fill="#FEFEFE"/>
<path d="M223.595 26.0449C226.185 26.0449 227.987 27.7207 227.987 30.0566C227.987 30.8184 227.759 31.9355 227.454 32.7988L219.837 54.0254C217.171 61.5664 213.489 64.4609 206.685 64.4609C202.876 64.4609 200.794 62.9883 200.794 60.3223C200.794 58.545 202.038 57.4532 204.019 57.4531C204.45 57.4531 204.78 57.4785 205.212 57.4785C206.304 57.4785 207.599 57.1738 208.411 55.9551L208.64 55.4219L200.21 32.9512C199.854 32.0371 199.651 30.9961 199.651 30.2344C199.651 27.8223 201.683 26.045 204.349 26.0449C206.761 26.0449 207.979 27.0606 208.716 29.752L213.896 47.5254H214.048L219.228 29.6504C219.938 27.1622 221.284 26.045 223.595 26.0449ZM296.824 25.9688C303.146 25.9688 307.412 28.6094 308.402 31.6562C308.555 32.0879 308.631 32.5195 308.631 32.9512C308.631 34.6777 307.539 35.9473 305.203 35.9473C304.188 35.9472 302.893 35.541 302.131 34.8301C300.76 33.459 299.389 32.0371 296.748 32.0371C294.565 32.0372 293.092 33.002 293.092 34.5C293.092 35.6933 293.93 36.4551 296.57 36.9883L301.369 37.9277C307.311 39.0957 309.875 41.3555 309.875 45.4941C309.875 51.2832 304.721 54.9395 297.027 54.9395C289.969 54.9394 285.551 52.6543 284.256 49.4805C284.053 48.9473 283.926 48.414 283.926 47.957C283.926 45.9766 285.399 44.5802 287.43 44.5801C288.852 44.5801 290.045 45.1641 291.34 46.4336C292.863 48.1093 294.59 48.871 297.104 48.8711C299.439 48.8711 300.938 47.9824 300.938 46.4844C300.938 45.2656 300.049 44.6055 297.535 44.0977L292.711 43.1328C287.252 42.0664 284.434 39.1972 284.434 35.0078C284.434 29.4473 289.182 25.9688 296.824 25.9688ZM355.529 25.9688C363.756 25.9688 369.164 31.4023 369.164 38.8672C369.164 41.1523 367.869 42.4219 365.533 42.4219H350.502V42.9297C350.502 46.2811 352.711 48.5663 355.961 48.5664C358.424 48.5664 360.125 47.7792 362.131 45.748C363.07 44.8595 363.807 44.5547 364.924 44.5547C366.752 44.5547 368.301 45.7227 368.301 47.7031C368.301 48.3887 368.098 49.0742 367.691 49.7344C365.863 52.9843 361.394 54.9395 355.885 54.9395C347.024 54.9393 341.768 49.5819 341.768 40.5938C341.768 31.631 347.1 25.9689 355.529 25.9688ZM383.536 25.9688C389.858 25.9688 394.124 28.6094 395.114 31.6562C395.267 32.0879 395.343 32.5195 395.343 32.9512C395.343 34.6777 394.251 35.9473 391.915 35.9473C390.899 35.9472 389.604 35.5409 388.843 34.8301C387.472 33.459 386.1 32.0371 383.46 32.0371C381.277 32.0372 379.804 33.002 379.804 34.5C379.804 35.6933 380.642 36.4551 383.282 36.9883L388.081 37.9277C394.022 39.0957 396.587 41.3555 396.587 45.4941C396.587 51.2832 391.433 54.9395 383.739 54.9395C376.681 54.9394 372.263 52.6542 370.968 49.4805C370.765 48.9473 370.638 48.414 370.638 47.957C370.638 45.9767 372.111 44.5802 374.142 44.5801C375.563 44.5801 376.757 45.1642 378.052 46.4336C379.575 48.1093 381.302 48.871 383.815 48.8711C386.151 48.8711 387.649 47.9824 387.649 46.4844C387.649 45.2656 386.761 44.6055 384.247 44.0977L379.423 43.1328C373.964 42.0664 371.146 39.1972 371.146 35.0078C371.146 29.4474 375.894 25.9689 383.536 25.9688ZM104.104 17.0059C115.199 17.0059 122.182 24.293 122.182 35.9727C122.182 47.6523 115.199 54.9141 104.104 54.9141C92.9824 54.9141 86 47.6523 86 35.9727C86 24.293 93.0078 17.0059 104.104 17.0059ZM129.647 17.0566C132.44 17.0566 134.04 18.7324 134.04 21.6523V31.834H134.218C135.64 28.127 138.661 26.0957 142.876 26.0957C149.046 26.0957 152.474 30.0059 152.474 36.5312V50.1914C152.474 53.3398 150.62 54.8633 147.979 54.8633C145.339 54.8633 143.485 53.3398 143.485 50.1914V38.4863C143.485 35.3633 141.937 33.4336 138.966 33.4336C135.944 33.4336 134.243 35.5918 134.243 38.6895V50.1914C134.243 53.3398 132.364 54.8633 129.749 54.8633C127.108 54.8633 125.229 53.3398 125.229 50.1914V21.627C125.229 18.7324 126.855 17.0567 129.647 17.0566ZM160.066 26.0449C162.631 26.0449 164.434 27.5176 164.434 30.6152V31.9609H164.611C165.703 28.4063 168.725 26.0957 172.508 26.0957C176.621 26.0957 179.414 28.2285 180.201 31.9863H180.379C181.445 28.4317 184.797 26.0957 188.91 26.0957C194.318 26.0957 198 29.9043 198 35.5156V50.1914C198 53.3398 196.121 54.8633 193.48 54.8633C190.84 54.8633 188.986 53.3398 188.986 50.1914V37.8008C188.986 34.9062 187.641 33.4082 185.102 33.4082C182.664 33.4082 181.141 35.1602 181.141 37.877V50.1914C181.141 53.3398 179.465 54.8633 176.824 54.8633C174.184 54.8633 172.533 53.3398 172.533 50.1914V37.6992C172.533 34.9316 171.162 33.4082 168.699 33.4082C166.262 33.4082 164.688 35.211 164.688 37.9277V50.1914C164.688 53.3398 162.809 54.8633 160.168 54.8633C157.527 54.8633 155.674 53.3398 155.674 50.1914V30.6152C155.674 27.543 157.477 26.0449 160.066 26.0449ZM266.227 26.0449C268.689 26.0449 270.441 27.6191 270.441 29.8281C270.441 30.6914 270.264 31.4531 269.934 32.6719L264.957 50.0137C263.992 53.3652 262.316 54.8633 259.092 54.8633C255.715 54.8632 253.963 53.3906 253.201 49.9883L249.773 35.668H249.596L246.193 50.0645C245.457 53.416 243.705 54.8633 240.404 54.8633C237.256 54.8632 235.605 53.3652 234.666 50.0645L229.689 32.7734C229.334 31.5293 229.156 30.7676 229.156 29.8789C229.156 27.6446 230.984 26.045 233.498 26.0449C235.732 26.0449 237.256 27.4668 237.738 29.9043L241.166 46.1543H241.344L244.848 30.1836C245.381 27.4922 247.158 26.045 249.875 26.0449C252.566 26.0449 254.344 27.4922 254.902 30.209L258.432 46.1543H258.609L262.037 29.8281C262.494 27.4668 263.992 26.045 266.227 26.0449ZM277.069 26.0449C279.888 26.0449 281.563 27.7715 281.563 30.7168V50.1914C281.563 53.1621 279.888 54.8633 277.069 54.8633C274.226 54.8632 272.575 53.162 272.575 50.1914V30.7168C272.575 27.7715 274.226 26.045 277.069 26.0449ZM316.579 17.0566C319.372 17.0566 320.972 18.7324 320.972 21.6523V31.834H321.149C322.571 28.127 325.593 26.0958 329.808 26.0957C335.978 26.0957 339.405 30.0059 339.405 36.5312V50.1914C339.405 53.3398 337.552 54.8633 334.911 54.8633C332.271 54.8632 330.417 53.3397 330.417 50.1914V38.4863C330.417 35.3633 328.868 33.4336 325.897 33.4336C322.876 33.4337 321.175 35.5919 321.175 38.6895V50.1914C321.175 53.3398 319.296 54.8633 316.681 54.8633C314.04 54.8632 312.161 53.3397 312.161 50.1914V21.627C312.161 18.7325 313.786 17.0568 316.579 17.0566ZM104.104 24.5723C98.8984 24.5723 95.4961 28.9902 95.4961 35.9727C95.4961 42.9297 98.873 47.3477 104.104 47.3477C109.309 47.3477 112.711 42.9297 112.711 35.9727C112.711 28.9902 109.309 24.5723 104.104 24.5723ZM355.707 32.3672C352.914 32.3673 350.857 34.3985 350.629 37.293H360.684C360.531 34.2969 358.525 32.3672 355.707 32.3672ZM277.069 15C279.685 15 281.665 16.9043 281.665 19.418C281.665 21.9062 279.685 23.8105 277.069 23.8105C274.454 23.8105 272.448 21.9062 272.448 19.418C272.448 16.9044 274.454 15.0001 277.069 15Z" fill="white"/>
<defs>
<linearGradient id="paint0_linear_10214_52797" x1="-27" y1="36" x2="36" y2="99" gradientUnits="userSpaceOnUse">
<stop stop-color="#0333FF"/>
<stop offset="1" stop-color="#001B8D"/>
</linearGradient>
<linearGradient id="paint1_linear_10214_52797" x1="13.6" y1="36.77" x2="30.58" y2="58.5044" gradientUnits="userSpaceOnUse">
<stop stop-color="#FF705F"/>
<stop offset="1" stop-color="#DA271C"/>
</linearGradient>
</defs>
</svg>
